<svg width="9" height="5" viewBox="0 0 9 5" fill="none" xmlns="http://www.w3.org/2000/svg">
<path d="M3.97495 4.475L0.349951 0.85C0.299951 0.8 0.262451 0.745833 0.237451 0.6875C0.212451 0.629167 0.199951 0.566667 0.199951 0.5C0.199951 0.366667 0.245785 0.25 0.337451 0.15C0.429118 0.05 0.549951 0 0.699951 0H8.29995C8.44995 0 8.57079 0.05 8.66245 0.15C8.75412 0.25 8.79995 0.366667 8.79995 0.5C8.79995 0.533333 8.74995 0.65 8.64995 0.85L5.02495 4.475C4.94162 4.55833 4.85828 4.61667 4.77495 4.65C4.69162 4.68333 4.59995 4.7 4.49995 4.7C4.39995 4.7 4.30828 4.68333 4.22495 4.65C4.14162 4.61667 4.05828 4.55833 3.97495 4.475Z" fill="#131415"/>
</svg>
